<svg width="242" height="471" viewBox="0 0 242 471" fill="none" xmlns="http://www.w3.org/2000/svg">
<path fill-rule="evenodd" clip-rule="evenodd" d="M24.8802 29.8948C50.725 39.1324 74.6166 52.1714 96.2502 70.7138C115.985 87.6289 126.272 113.895 144.711 132.604C173.448 161.76 220.071 170.796 234.781 211.268C249.485 251.725 240.347 302.202 219.812 339.232C199.43 375.986 158.099 386.729 125.21 408.854C91.9426 431.232 63.1011 476.919 24.8802 470.363C-14.5295 463.603 -33.1839 411.352 -59.3721 377.191C-78.2036 352.627 -97.2173 328.53 -107.252 298.006C-116.344 270.349 -115.693 240.725 -113.918 211.268C-112.239 183.403 -102.026 158.514 -97.1971 131.129C-89.8887 89.6859 -108.176 33.2895 -78.1405 8.38232C-49.4426 -15.4158 -9.00474 17.7835 24.8802 29.8948Z" fill="#ADE6FA"/>
</svg>
