<svg width="564" height="617" viewBox="0 0 564 617" fill="none" xmlns="http://www.w3.org/2000/svg">
<path fill-rule="evenodd" clip-rule="evenodd" d="M367.041 -68.9373C438.783 -66.4108 478.643 10.5379 531.714 57.3191C577.655 97.8146 627.945 132.137 656.015 185.788C688.057 247.029 714.845 314.386 701.484 381.8C687.214 453.799 643.264 519.83 581.416 562.17C519.999 604.215 439.759 629.42 367.041 610.753C299.162 593.328 280.426 507.525 221.949 469.892C159.003 429.383 56.6533 449.327 18.2718 386.305C-19.9317 323.575 8.52439 239.654 42.0232 174.455C72.7151 114.719 138.902 86.2342 193.423 45.4057C250.175 2.90688 295.328 -71.4628 367.041 -68.9373Z" fill="#FDEEB9"/>
</svg>
